<?xml version="1.0" encoding="UTF-8"?>
<svg id="Layer_1" xmlns="http://www.w3.org/2000/svg" version="1.1" viewBox="0 0 16 24">
  <!-- Generator: Adobe Illustrator 30.6.0, SVG Export Plug-In . SVG Version: 2.1.4 Build 109)  -->
  <defs>
    <style>
      .st0 {
        fill: #131613;
      }

      .st1 {
        fill: #ffd7a9;
      }

      .st2 {
        fill: #0b1919;
      }

      .st3 {
        fill: #a61414;
      }

      .st4 {
        fill: #fff;
      }

      .st5 {
        fill: #ad6724;
      }

      .st6 {
        fill: #303841;
      }

      .st7 {
        fill: #434d57;
      }

      .st8 {
        fill: #323a4e;
      }
    </style>
  </defs>
  <rect class="st1" x="2" y="1" width="12" height="11"/>
  <rect class="st2" x="3" y="13" width="10" height="6"/>
  <rect class="st4" x="5" y="9" width="6" height="1"/>
  <rect class="st4" x="6" y="10" width="4" height="1"/>
  <rect class="st5" x="1" y="2" width="1" height="5"/>
  <rect class="st5" x="14" y="2" width="1" height="5"/>
  <rect class="st5" x="2" y="1" width="12" height="1"/>
  <rect class="st2" x="2" width="12" height="1"/>
  <rect class="st5" x="11" y="2" width="3" height="1"/>
  <rect class="st5" x="13" y="3" width="1" height="1"/>
  <rect class="st5" x="2" y="2" width="1" height="2"/>
  <rect class="st2" x="2" y="13" width="1" height="1"/>
  <rect class="st2" x="13" y="13" width="1" height="1"/>
  <rect class="st1" x="2" y="14" width="1" height="6"/>
  <rect class="st1" x="13" y="14" width="1" height="6"/>
  <rect class="st8" x="3" y="19" width="10" height="1"/>
  <rect class="st8" x="3" y="20" width="1" height="3"/>
  <rect class="st8" x="12" y="20" width="1" height="3"/>
  <rect class="st0" x="2" y="23" width="2" height="1"/>
  <rect class="st0" x="12" y="23" width="2" height="1"/>
  <rect class="st1" x="5" y="12" width="6" height="1"/>
  <rect class="st4" x="3" y="5" width="2" height="3" transform="translate(8 13) rotate(-180)"/>
  <rect x="4" y="5" width="1" height="2" transform="translate(9 12) rotate(-180)"/>
  <rect class="st4" x="11" y="5" width="2" height="3" transform="translate(24 13) rotate(-180)"/>
  <rect x="11" y="5" width="1" height="2" transform="translate(23 12) rotate(-180)"/>
  <rect class="st6" x="1" y="6" width="1" height="4"/>
  <rect class="st6" x="14" y="6" width="1" height="4"/>
  <rect class="st7" y="7" width="1" height="2"/>
  <rect class="st7" x="15" y="7" width="1" height="2"/>
  <rect class="st2" y="2" width="1" height="5"/>
  <rect class="st2" x="15" y="2" width="1" height="5"/>
  <rect class="st2" x="1" y="1" width="1" height="1"/>
  <rect class="st2" x="14" y="1" width="1" height="1"/>
  <rect class="st5" x="3" y="2" width="3" height="1"/>
  <rect class="st3" x="5" y="14" width="1" height="3"/>
  <rect class="st3" x="7" y="14" width="4" height="1"/>
  <rect class="st3" x="10" y="16" width="1" height="1"/>
  <rect class="st3" x="7" y="16" width="2" height="1"/>
  <rect class="st5" x="1" y="10" width="1" height="3"/>
  <rect class="st5" x="14" y="10" width="1" height="3"/>
  <rect class="st5" x="15" y="9" width="1" height="3"/>
  <rect class="st5" y="9" width="1" height="3"/>
  <rect class="st5" x="2" y="12" width="3" height="1"/>
  <rect class="st5" x="11" y="12" width="3" height="1"/>
</svg>