<?xml version="1.0" encoding="UTF-8"?>
<svg id="Layer_1" xmlns="http://www.w3.org/2000/svg" version="1.1" viewBox="0 0 17 24">
  <!-- Generator: Adobe Illustrator 30.6.0, SVG Export Plug-In . SVG Version: 2.1.4 Build 109)  -->
  <defs>
    <style>
      .st0 {
        fill: #7b5631;
      }

      .st1 {
        fill: #ffbe7e;
      }

      .st2 {
        fill: #454545;
      }

      .st3 {
        fill: #ffd7a9;
      }

      .st4 {
        fill: #4f4f4f;
      }

      .st5 {
        fill: #fff;
      }

      .st6 {
        fill: #a29fa3;
      }

      .st7 {
        fill: #b5b1b6;
      }

      .st8 {
        fill: #ae7b2e;
      }
    </style>
  </defs>
  <rect class="st3" x="2" y="7" width="14" height="2"/>
  <rect class="st3" x="3" y="1" width="12" height="11"/>
  <rect class="st4" x="4" y="13" width="10" height="11"/>
  <rect class="st1" x="8" y="8" width="3" height="1"/>
  <rect class="st7" x="2" y="2" width="1" height="5"/>
  <rect class="st7" x="15" y="2" width="1" height="5"/>
  <rect class="st7" x="3" y="1" width="12" height="1"/>
  <rect class="st7" x="5" width="8" height="1"/>
  <rect class="st7" x="12" y="2" width="3" height="1"/>
  <rect class="st7" x="14" y="3" width="1" height="1"/>
  <rect class="st7" x="3" y="2" width="1" height="11"/>
  <rect class="st7" x="2" y="9" width="1" height="5"/>
  <rect class="st7" x="15" y="9" width="1" height="5"/>
  <rect class="st8" x="3" y="13" width="1" height="1"/>
  <rect class="st8" x="14" y="13" width="1" height="1"/>
  <rect class="st4" x="2.5" y="15.5" width="1" height="2" transform="translate(19.5 13.5) rotate(90)"/>
  <rect class="st3" x="14" y="14" width="1" height="6"/>
  <rect class="st4" x="14" y="15" width="1" height="4"/>
  <rect class="st3" x="6" y="12" width="6" height="1"/>
  <rect class="st5" x="4" y="5" width="2" height="3" transform="translate(10 13) rotate(-180)"/>
  <rect x="5" y="5" width="1" height="2" transform="translate(11 12) rotate(-180)"/>
  <rect class="st5" x="12" y="5" width="2" height="3" transform="translate(26 13) rotate(-180)"/>
  <rect x="12" y="5" width="1" height="2" transform="translate(25 12) rotate(-180)"/>
  <rect class="st4" x="3" y="14" width="1" height="2"/>
  <rect class="st0" y="16" width="1" height="3"/>
  <rect class="st0" x="1" y="16" width="1" height="1"/>
  <rect class="st3" y="16" width="1" height="1"/>
  <rect class="st0" x="1" y="19" width="1" height="2"/>
  <rect class="st0" y="21" width="1" height="3"/>
  <rect class="st7" x="3" y="12" width="1" height="3"/>
  <rect class="st7" x="4" y="2" width="6" height="1"/>
  <rect class="st7" x="4" y="3" width="4" height="1"/>
  <rect class="st7" x="4" y="4" width="2" height="1"/>
  <rect class="st7" x="4" y="4" width="1" height="2"/>
  <rect class="st7" x="1" y="5" width="1" height="7"/>
  <rect class="st7" x="16" y="4" width="1" height="8"/>
  <rect class="st6" x="4" y="10" width="11" height="2"/>
  <rect class="st6" x="5" y="12" width="9" height="1"/>
  <rect class="st6" x="6" y="13" width="6" height="1"/>
  <rect class="st6" x="7" y="14" width="4" height="1"/>
  <rect class="st6" x="6" y="8" width="1" height="2"/>
  <rect class="st6" x="7" y="7" width="4" height="1"/>
  <rect class="st6" x="11" y="8" width="1" height="2"/>
  <rect class="st7" x="14" y="12" width="1" height="3"/>
  <rect class="st7" x="4" y="12" width="1" height="2"/>
  <rect class="st6" x="4" y="9" width="1" height="1"/>
  <rect class="st6" x="13" y="9" width="2" height="1"/>
  <rect class="st6" x="14" y="8" width="1" height="1"/>
  <rect class="st2" x="5" y="13" width="1" height="1"/>
  <rect class="st2" x="6" y="14" width="1" height="1"/>
  <rect class="st2" x="7" y="15" width="4" height="1"/>
  <rect class="st2" x="11" y="14" width="1" height="1"/>
  <rect class="st2" x="12" y="13" width="2" height="1"/>
  <rect class="st2" x="4" y="14" width="1" height="1"/>
</svg>